<?xml version="1.0" standalone="no"?>
<!DOCTYPE svg PUBLIC "-//W3C//DTD SVG 20010904//EN"
 "http://www.w3.org/TR/2001/REC-SVG-20010904/DTD/svg10.dtd">
<svg version="1.0" xmlns="http://www.w3.org/2000/svg"
 width="1024.000000pt" height="1024.000000pt" viewBox="0 0 1024.000000 1024.000000"
 preserveAspectRatio="xMidYMid meet">
<metadata>
Created by potrace 1.14, written by Peter Selinger 2001-2017
</metadata>
<g transform="translate(0.000000,1024.000000) scale(0.100000,-0.100000)"
fill="#000000" stroke="none">
<path d="M5005 8662 c-1 -2 -43 -5 -91 -8 -49 -2 -100 -6 -114 -9 -14 -3 -50
-7 -80 -10 -30 -4 -91 -13 -135 -21 -44 -8 -93 -17 -110 -20 -137 -25 -400
-104 -560 -169 -176 -71 -441 -212 -568 -301 -26 -19 -49 -34 -52 -34 -4 0
-131 -91 -175 -126 -114 -91 -342 -293 -384 -341 -6 -7 -37 -41 -70 -75 -32
-35 -87 -99 -123 -143 -35 -44 -70 -87 -76 -95 -7 -8 -28 -37 -47 -65 -19 -27
-38 -52 -41 -55 -34 -29 -265 -453 -294 -540 -1 -3 -7 -18 -14 -35 -23 -53
-82 -209 -86 -226 -2 -9 -13 -47 -25 -85 -12 -38 -23 -77 -26 -86 -2 -10 -6
-26 -8 -35 -61 -249 -97 -466 -113 -678 -8 -117 -10 -595 -2 -680 12 -128 19
-198 24 -230 13 -96 25 -174 31 -205 2 -14 7 -38 10 -55 2 -16 7 -38 10 -47 6
-20 12 -51 20 -98 3 -19 10 -43 15 -52 5 -10 8 -18 5 -18 -3 0 0 -15 5 -32 6
-18 12 -40 14 -48 2 -8 8 -28 15 -45 6 -16 11 -31 10 -33 -2 -3 61 -194 69
-207 3 -5 6 -15 7 -21 1 -6 24 -64 52 -130 226 -537 589 -1027 1012 -1369 112
-90 214 -165 225 -165 3 0 11 -5 18 -10 52 -44 299 -176 427 -229 30 -12 64
-26 75 -32 44 -20 296 -99 395 -122 106 -26 310 -61 410 -72 30 -4 69 -8 85
-11 61 -9 543 -11 630 -3 141 13 229 24 315 39 100 18 113 21 174 36 34 8 68
16 77 19 325 76 803 308 1077 522 27 21 63 49 82 63 18 14 42 33 54 43 11 10
46 39 76 65 60 51 304 293 360 357 44 50 160 195 180 225 8 13 24 35 36 49 66
84 191 296 269 457 100 205 202 489 240 664 2 8 12 53 23 100 23 97 39 182 47
254 4 28 8 53 10 56 2 4 7 36 10 71 2 35 7 87 10 114 20 169 25 618 9 760 -3
33 -6 69 -5 80 0 17 -10 94 -34 270 -10 74 -19 119 -60 307 -48 222 -171 545
-293 773 -54 101 -189 318 -222 358 -6 7 -38 48 -72 92 -64 83 -85 107 -178
208 -53 58 -93 97 -203 201 -102 96 -405 336 -423 336 -4 0 -17 8 -28 18 -67
59 -359 219 -540 297 -124 52 -336 127 -336 118 0 -3 -6 -1 -12 5 -7 6 -16 11
-21 11 -4 0 -17 3 -30 6 -13 4 -30 7 -38 9 -8 2 -25 6 -39 9 -14 4 -36 9 -50
11 -14 3 -59 12 -100 20 -41 8 -99 17 -129 21 -30 4 -62 8 -72 10 -64 13 -524
27 -534 17z m305 -376 c137 -13 168 -19 312 -52 201 -46 443 -149 564 -241 17
-12 36 -23 42 -23 6 0 12 -3 14 -7 2 -5 30 -28 63 -53 66 -50 211 -192 265
-259 19 -24 40 -49 46 -55 18 -19 151 -219 184 -277 169 -298 312 -706 385
-1104 10 -49 19 -99 21 -110 2 -11 7 -38 10 -60 2 -22 7 -51 9 -65 2 -14 7
-50 10 -80 4 -30 9 -68 11 -85 2 -16 7 -59 10 -95 3 -36 7 -83 9 -105 25 -269
25 -898 0 -1145 -13 -136 -17 -168 -20 -190 -1 -14 -6 -50 -10 -80 -3 -30 -9
-68 -11 -85 -3 -16 -7 -43 -10 -60 -2 -16 -6 -41 -9 -55 -2 -14 -7 -36 -10
-50 -2 -14 -6 -36 -9 -50 -14 -85 -69 -292 -121 -455 -70 -217 -229 -534 -342
-680 -13 -16 -27 -34 -31 -40 -163 -220 -380 -416 -587 -533 -85 -47 -275
-135 -275 -126 0 3 -10 -1 -22 -8 -13 -6 -27 -13 -33 -14 -5 -1 -39 -11 -75
-22 -57 -17 -158 -40 -255 -57 -156 -27 -565 -27 -688 0 -12 2 -35 7 -52 9
-51 8 -189 44 -256 67 -75 25 -263 110 -267 121 -2 5 -8 8 -13 8 -9 0 -147 87
-159 100 -3 3 -23 18 -45 35 -316 233 -606 692 -785 1237 -23 70 -43 133 -44
140 -1 7 -10 38 -18 68 -27 90 -83 354 -94 440 -3 25 -7 52 -9 60 -2 8 -7 35
-10 60 -3 25 -7 61 -10 80 -2 19 -7 62 -10 95 -4 33 -8 76 -11 95 -26 213 -26
879 0 1195 10 112 36 313 51 395 3 14 7 41 10 60 15 88 79 367 92 400 3 8 8
23 9 32 12 61 113 325 171 446 74 156 204 363 310 492 79 97 229 243 339 330
51 40 154 105 237 150 97 52 237 113 237 103 0 -3 6 -1 13 5 13 11 170 55 257
71 96 18 113 21 195 27 44 3 81 7 82 8 5 4 274 -2 333 -8z"/>
<path d="M4763 8134 c-10 -26 2 -48 27 -50 14 -1 36 -4 50 -7 14 -3 35 -8 48
-11 23 -5 82 -46 66 -46 -5 0 -4 -4 3 -8 7 -4 15 -26 18 -47 4 -31 7 -995 5
-1632 l0 -82 -230 230 c-248 249 -303 309 -337 369 -37 65 -22 140 45 228 21
28 23 34 11 49 -23 30 -37 43 -45 43 -9 0 -564 -556 -564 -565 0 -4 13 -19 29
-34 l29 -27 31 26 c45 38 117 72 155 73 67 2 136 -55 483 -399 l334 -331 -289
-289 c-380 -381 -414 -412 -483 -438 -63 -24 -101 -14 -182 48 -26 20 -50 36
-53 36 -9 0 -53 -55 -54 -68 0 -6 3 -11 8 -10 12 4 492 -483 486 -494 -3 -5
-27 -8 -53 -7 -125 7 -221 84 -257 207 -9 28 -24 56 -34 62 -20 11 -235 7
-263 -5 -16 -7 -25 -30 -26 -65 0 -8 -3 -161 -7 -340 -12 -556 -7 -1643 8
-1857 1 -7 10 -21 21 -30 16 -15 39 -18 137 -18 110 0 120 2 140 22 11 13 18
23 15 23 -15 0 59 121 91 150 48 42 84 57 166 68 90 12 140 -3 225 -66 86 -63
133 -81 209 -78 96 3 185 54 247 140 20 28 42 15 72 -43 31 -63 61 -91 96 -91
36 0 84 41 105 90 10 22 23 41 31 44 7 3 34 -16 61 -43 71 -74 173 -114 264
-104 55 6 130 40 189 85 68 52 87 60 143 61 127 0 203 -50 263 -175 33 -69 57
-80 170 -84 129 -5 166 6 189 54 18 35 19 85 19 1087 0 986 -1 1053 -18 1102
-25 72 -44 81 -161 81 -147 0 -164 -9 -171 -95 -8 -88 -64 -155 -158 -187 -52
-17 -171 -28 -200 -17 -14 5 39 63 252 275 l269 269 -29 28 c-17 16 -32 29
-35 29 -3 0 -22 -13 -42 -29 -96 -76 -145 -83 -227 -35 -61 35 -122 92 -467
437 l-268 269 307 307 c380 378 430 421 501 424 41 1 113 -31 163 -73 l32 -26
28 25 c16 14 29 30 29 36 0 5 -127 136 -281 289 l-280 280 -31 -31 -31 -31 26
-34 c34 -45 67 -117 67 -149 0 -26 -26 -99 -39 -109 -3 -3 -23 -26 -43 -52
-21 -25 -144 -152 -273 -282 l-235 -235 0 64 c0 36 0 229 0 430 0 201 0 375 0
388 0 23 0 23 143 23 149 -1 251 7 304 23 17 5 34 7 36 4 3 -2 15 1 27 7 12 6
30 13 40 15 42 8 154 71 195 109 55 51 112 138 126 191 6 22 13 49 16 60 10
29 10 154 0 199 -24 120 -113 227 -237 287 -63 30 -115 49 -140 51 -3 0 -15 4
-28 9 -13 5 -40 11 -60 14 -20 2 -48 8 -62 11 -14 4 -211 7 -439 8 -322 2
-414 -1 -418 -10z m809 -118 c170 -46 268 -149 282 -295 1 -21 5 -42 8 -47 6
-12 -17 -162 -30 -194 -18 -45 -70 -108 -114 -137 -77 -52 -138 -66 -305 -71
l-153 -4 0 29 c-2 195 1 674 5 693 9 44 29 51 145 46 58 -3 131 -12 162 -20z
m239 -3019 c58 -89 52 -163 -20 -247 -27 -32 -31 -34 -52 -22 -128 78 -231 96
-349 62 -47 -13 -46 -14 -73 16 -26 28 -43 93 -53 199 -4 51 -6 190 -4 499 l0
70 256 -259 c146 -147 273 -284 295 -318z m-836 236 c-3 -279 -5 -325 -21
-373 -20 -59 -73 -107 -103 -94 -136 57 -205 58 -317 1 -81 -41 -83 -40 -121
38 -43 86 -37 121 34 219 43 58 515 536 524 530 4 -2 5 -147 4 -321z m-1 -675
c2 -7 9 -32 15 -55 21 -75 87 -123 144 -103 37 13 61 39 84 96 19 47 38 56 48
25 11 -35 78 -90 130 -108 52 -17 143 -22 207 -10 20 4 70 26 110 49 123 72
126 73 212 73 69 0 90 -4 140 -29 119 -58 220 -197 161 -220 -8 -3 -24 3 -37
13 -33 27 -93 41 -168 41 -166 0 -305 -77 -470 -262 -112 -125 -183 -198 -201
-208 -13 -7 -24 -2 -48 22 -17 18 -31 37 -31 44 0 7 -4 14 -8 16 -5 2 -23 24
-40 50 -63 91 -89 86 -167 -36 -27 -42 -52 -76 -56 -76 -6 0 -95 79 -179 160
-30 29 -94 85 -135 118 -45 36 -150 100 -218 132 -132 63 -230 81 -367 67 -19
-2 -41 -2 -47 1 -18 6 -16 38 4 70 81 130 278 159 416 60 48 -34 74 -47 134
-62 111 -29 211 1 297 91 53 55 64 61 70 41z m-656 -354 c270 -131 321 -533
97 -758 -45 -44 -109 -81 -155 -89 -29 -5 -104 19 -139 44 -33 25 -41 67 -20
106 97 174 112 214 110 297 0 28 -6 66 -12 85 -11 32 -65 129 -79 141 -3 3
-20 24 -38 46 -40 52 -42 92 -6 119 67 51 149 54 242 9z m1698 -21 c22 -8 16
-20 -15 -33 -59 -24 -143 -136 -174 -232 -11 -31 -86 -69 -175 -88 -48 -10
-98 -17 -112 -15 -14 2 -28 4 -33 4 -13 2 22 62 76 131 152 195 310 280 433
233z m-336 -468 c48 -8 113 -41 144 -72 14 -14 33 -51 42 -84 17 -59 56 -111
119 -157 39 -28 22 -40 -50 -37 -86 5 -174 53 -265 145 -100 101 -176 199
-158 204 36 13 104 13 168 1z m-622 -121 c75 -133 96 -132 207 14 21 28 47 55
58 58 23 7 103 -53 201 -152 61 -61 175 -157 204 -173 11 -6 26 -17 34 -23 7
-7 31 -22 53 -33 22 -11 42 -23 45 -26 3 -3 39 -15 80 -26 76 -20 148 -23 230
-8 93 16 101 10 69 -55 -22 -44 -72 -92 -125 -119 -57 -30 -78 -34 -159 -35
-69 0 -114 15 -153 52 -18 17 -108 62 -136 68 -50 12 -139 11 -185 -1 -56 -15
-101 -43 -148 -93 -18 -18 -40 -32 -49 -30 -9 2 -25 25 -36 55 -48 130 -142
132 -208 4 -29 -58 -44 -58 -101 3 -114 122 -262 133 -417 32 -70 -46 -146
-74 -197 -71 -79 5 -182 82 -220 165 -23 50 -15 73 20 60 14 -5 25 -8 25 -6 0
2 20 -2 44 -9 147 -45 474 109 671 316 33 34 72 76 88 92 25 27 29 28 50 14
12 -8 37 -41 55 -73z"/>
<path d="M4023 6119 c-81 -23 -130 -117 -120 -228 7 -69 23 -104 66 -145 27
-26 38 -30 94 -30 51 -1 67 3 86 21 23 22 24 22 47 4 15 -12 38 -18 66 -17
l43 1 0 40 c0 36 -3 40 -27 43 -23 3 -30 11 -39 44 -6 22 -7 52 -3 67 4 14 8
28 9 31 0 3 11 36 24 73 28 84 24 99 -26 95 -21 -2 -36 -6 -33 -9 3 -3 -2 -14
-9 -23 -14 -16 -16 -16 -26 -2 -14 19 -77 46 -102 45 -10 0 -33 -5 -50 -10z
m83 -101 c20 -23 32 -113 18 -139 -7 -13 -11 -26 -9 -29 2 -3 -5 -16 -14 -29
-50 -66 -115 37 -91 144 15 65 61 91 96 53z"/>
<path d="M6063 6109 c-37 -11 -109 -88 -116 -126 -9 -46 -1 -117 17 -150 21
-41 20 -48 -2 -48 -13 0 -17 -9 -17 -40 l0 -40 83 -1 c48 0 86 4 90 10 17 27
7 58 -28 89 -46 41 -64 85 -57 143 6 55 33 84 87 91 57 8 97 -19 109 -75 13
-61 -3 -109 -50 -154 -29 -27 -39 -45 -39 -68 0 -17 6 -31 13 -31 55 -7 159
-4 163 3 4 5 7 23 8 38 2 31 -13 44 -41 33 -14 -6 -13 -1 5 29 63 101 32 233
-65 285 -33 18 -115 24 -160 12z"/>
</g>
</svg>
